<svg width="534" height="64" viewBox="0 0 534 64" fill="none" xmlns="http://www.w3.org/2000/svg">
<rect width="534" height="64" rx="8" fill="white"/>
<path fill-rule="evenodd" clip-rule="evenodd" d="M23 40C23 40.5523 23.4477 41 24 41C24.5523 41 25 40.5523 25 40L25 24C25 23.4477 24.5523 23 24 23C23.4477 23 23 23.4477 23 24L23 40ZM31 40C31 40.5523 31.4477 41 32 41C32.5523 41 33 40.5523 33 40L33 24C33 23.4477 32.5523 23 32 23C31.4477 23 31 23.4477 31 24L31 40Z" fill="black"/>
<g clip-path="url(#clip0_124_3562)">
<path d="M56 32.0555V29.8494C56.0012 29.67 56.1292 29.4981 56.3558 29.3715C56.5824 29.2449 56.8893 29.1738 57.2092 29.1738V29.1738C57.5286 29.1738 57.8349 29.245 58.0608 29.3717C58.2867 29.4984 58.4136 29.6702 58.4136 29.8494V34.1507C58.4136 34.3299 58.2867 34.5017 58.0608 34.6284C57.8349 34.7551 57.5286 34.8263 57.2092 34.8263V34.8263C56.8893 34.8263 56.5824 34.7552 56.3558 34.6286C56.1292 34.502 56.0012 34.3301 56 34.1507V32.0555Z" fill="#E63036"/>
<path d="M62.4142 32.0554V25.5611C62.4117 25.4715 62.441 25.3825 62.5004 25.2993C62.5598 25.2162 62.6482 25.1404 62.7603 25.0766C62.8724 25.0127 63.006 24.962 63.1533 24.9274C63.3007 24.8928 63.4589 24.875 63.6187 24.875C63.9385 24.875 64.2454 24.9461 64.472 25.0727C64.6986 25.1993 64.8266 25.3711 64.8278 25.5506V38.4282C64.8322 38.5188 64.8042 38.609 64.7454 38.6935C64.6866 38.7779 64.5982 38.8548 64.4855 38.9198C64.3728 38.9847 64.238 39.0363 64.0891 39.0716C63.9402 39.1068 63.7803 39.1249 63.6187 39.1249V39.1249C63.2992 39.1249 62.9929 39.0537 62.767 38.927C62.5411 38.8003 62.4142 38.6285 62.4142 38.4494V32.0554Z" fill="#E63036"/>
<path d="M68.8281 32.0551V18.5652C68.8275 18.4764 68.8582 18.3884 68.9186 18.3063C68.9789 18.2242 69.0676 18.1495 69.1795 18.0867C69.2915 18.0239 69.4245 17.9742 69.5709 17.9404C69.7173 17.9065 69.8742 17.8893 70.0326 17.8897V17.8897C70.1911 17.8893 70.3483 17.9065 70.4949 17.9403C70.6416 17.9741 70.775 18.0238 70.8873 18.0866C70.9996 18.1494 71.0888 18.2239 71.1496 18.3061C71.2104 18.3882 71.2417 18.4763 71.2417 18.5652V45.4342C71.2417 45.5231 71.2104 45.6112 71.1496 45.6933C71.0888 45.7755 70.9996 45.85 70.8873 45.9128C70.775 45.9756 70.6416 46.0253 70.4949 46.0591C70.3483 46.0929 70.1911 46.1101 70.0326 46.1097V46.1097C69.8742 46.1101 69.7173 46.0928 69.5709 46.059C69.4245 46.0252 69.2915 45.9754 69.1795 45.9126C69.0676 45.8498 68.9789 45.7752 68.9186 45.6931C68.8582 45.611 68.8275 45.523 68.8281 45.4342V32.0551Z" fill="#E63036"/>
<path d="M75.2412 32.0551V23.492C75.2412 23.3128 75.3681 23.141 75.594 23.0143C75.8199 22.8876 76.1262 22.8164 76.4457 22.8164C76.7651 22.8164 77.0715 22.8876 77.2973 23.0143C77.5232 23.141 77.6501 23.3128 77.6501 23.492V40.5074C77.6501 40.6866 77.5232 40.8584 77.2973 40.9851C77.0715 41.1118 76.7651 41.1829 76.4457 41.1829C76.1262 41.1829 75.8199 41.1118 75.594 40.9851C75.3681 40.8584 75.2412 40.6866 75.2412 40.5074V32.0551Z" fill="#E63036"/>
<path d="M81.6504 32.0448V26.7671C81.6498 26.6781 81.6805 26.59 81.7407 26.5077C81.801 26.4255 81.8896 26.3507 82.0015 26.2877C82.1134 26.2246 82.2464 26.1747 82.3928 26.1405C82.5393 26.1064 82.6963 26.0889 82.8548 26.0889C83.1755 26.0889 83.4831 26.1603 83.7098 26.2875C83.9366 26.4147 84.064 26.5872 84.064 26.7671V37.2328C84.064 37.4127 83.9366 37.5852 83.7098 37.7124C83.4831 37.8395 83.1755 37.911 82.8548 37.911V37.911C82.6963 37.911 82.5393 37.8934 82.3928 37.8593C82.2464 37.8252 82.1134 37.7752 82.0015 37.7122C81.8896 37.6492 81.801 37.5744 81.7407 37.4921C81.6805 37.4099 81.6498 37.3217 81.6504 37.2328V32.0448Z" fill="#E63036"/>
<path d="M88.0635 32.0554V17.8504C88.0647 17.6709 88.1927 17.4991 88.4193 17.3725C88.6459 17.2459 88.9528 17.1748 89.2726 17.1748V17.1748C89.5921 17.1748 89.8984 17.246 90.1243 17.3727C90.3502 17.4994 90.4771 17.6712 90.4771 17.8504V46.1496C90.4771 46.3288 90.3502 46.5006 90.1243 46.6273C89.8984 46.754 89.5921 46.8251 89.2726 46.8251C88.9528 46.8251 88.6459 46.7541 88.4193 46.6274C88.1927 46.5008 88.0647 46.329 88.0635 46.1496V32.0554Z" fill="#E63036"/>
<path d="M94.4775 32.0551V23.492C94.4788 23.3125 94.6067 23.1407 94.8334 23.0141C95.06 22.8875 95.3668 22.8164 95.6867 22.8164V22.8164C96.0061 22.8164 96.3125 22.8876 96.5384 23.0143C96.7642 23.141 96.8911 23.3128 96.8911 23.492V40.5074C96.8911 40.6866 96.7642 40.8584 96.5384 40.9851C96.3125 41.1118 96.0061 41.1829 95.6867 41.1829C95.3668 41.1829 95.06 41.1119 94.8334 40.9852C94.6067 40.8586 94.4788 40.6868 94.4775 40.5074V32.0551Z" fill="#E63036"/>
<path d="M102.1 52C101.78 52 101.473 51.9289 101.246 51.8023C101.02 51.6757 100.892 51.5039 100.891 51.3244V12.6756C100.892 12.4961 101.02 12.3243 101.246 12.1977C101.473 12.0711 101.78 12 102.1 12V12C102.419 12 102.726 12.0712 102.951 12.1979C103.177 12.3246 103.304 12.4964 103.304 12.6756V51.3244C103.304 51.5036 103.177 51.6754 102.951 51.8021C102.726 51.9288 102.419 52 102.1 52Z" fill="#E63036"/>
<path d="M108.509 49.9622C108.829 49.9622 109.136 49.8984 109.362 49.7846C109.589 49.6709 109.717 49.5166 109.718 49.3555V14.6438C109.717 14.4827 109.589 14.3284 109.362 14.2147C109.136 14.101 108.829 14.0371 108.509 14.0371C108.19 14.0371 107.883 14.101 107.657 14.2148C107.432 14.3286 107.305 14.4829 107.305 14.6438V49.3555C107.305 49.5164 107.432 49.6707 107.657 49.7845C107.883 49.8983 108.19 49.9622 108.509 49.9622Z" fill="#E63036"/>
<path d="M116.132 32.0551V23.492C116.131 23.3125 116.003 23.1407 115.777 23.0141C115.55 22.8875 115.243 22.8164 114.923 22.8164V22.8164C114.604 22.8164 114.297 22.8876 114.072 23.0143C113.846 23.141 113.719 23.3128 113.719 23.492V40.5074C113.719 40.6866 113.846 40.8584 114.072 40.9851C114.297 41.1118 114.604 41.1829 114.923 41.1829C115.243 41.1829 115.55 41.1119 115.777 40.9852C116.003 40.8586 116.131 40.6868 116.132 40.5074V32.0551Z" fill="#E63036"/>
<path d="M122.55 32.0554V17.8504C122.549 17.6709 122.421 17.4991 122.194 17.3725C121.968 17.2459 121.661 17.1748 121.341 17.1748C121.021 17.1748 120.714 17.2459 120.488 17.3725C120.261 17.4991 120.133 17.6709 120.132 17.8504V46.1496C120.133 46.329 120.261 46.5008 120.488 46.6274C120.714 46.7541 121.021 46.8251 121.341 46.8251V46.8251C121.661 46.8251 121.968 46.7541 122.194 46.6274C122.421 46.5008 122.549 46.329 122.55 46.1496V32.0554Z" fill="#E63036"/>
<path d="M128.963 32.0448V26.7671C128.963 26.5876 128.837 26.4155 128.611 26.2884C128.385 26.1613 128.079 26.0896 127.759 26.0889V26.0889C127.438 26.0889 127.131 26.1603 126.904 26.2875C126.677 26.4147 126.55 26.5872 126.55 26.7671V37.2328C126.55 37.4127 126.677 37.5852 126.904 37.7124C127.131 37.8395 127.438 37.911 127.759 37.911V37.911C128.079 37.9103 128.385 37.8385 128.611 37.7114C128.837 37.5843 128.963 37.4122 128.963 37.2328V32.0448Z" fill="#E63036"/>
<path d="M135.377 32.0551V23.492C135.376 23.3125 135.248 23.1407 135.022 23.0141C134.795 22.8875 134.488 22.8164 134.168 22.8164C133.849 22.8164 133.543 22.8876 133.317 23.0143C133.091 23.141 132.964 23.3128 132.964 23.492V40.5074C132.964 40.6866 133.091 40.8584 133.317 40.9851C133.543 41.1118 133.849 41.1829 134.168 41.1829C134.488 41.1829 134.795 41.1119 135.022 40.9852C135.248 40.8586 135.376 40.6868 135.377 40.5074V32.0551Z" fill="#E63036"/>
<path d="M141.791 32.0551V18.5652C141.791 18.386 141.664 18.2142 141.438 18.0875C141.212 17.9608 140.906 17.8897 140.586 17.8897V17.8897C140.428 17.8893 140.27 17.9065 140.124 17.9403C139.977 17.9741 139.844 18.0238 139.731 18.0866C139.619 18.1494 139.53 18.2239 139.469 18.3061C139.408 18.3882 139.377 18.4763 139.377 18.5652V45.4342C139.377 45.5231 139.408 45.6112 139.469 45.6933C139.53 45.7755 139.619 45.85 139.731 45.9128C139.844 45.9756 139.977 46.0253 140.124 46.0591C140.27 46.0929 140.428 46.1101 140.586 46.1097C140.906 46.1097 141.212 46.0386 141.438 45.9119C141.664 45.7852 141.791 45.6133 141.791 45.4342V32.0551Z" fill="#E63036"/>
<path d="M148.205 32.0555V25.5613C148.203 25.3819 148.075 25.2101 147.849 25.0834C147.622 24.9568 147.315 24.8857 146.995 24.8857C146.676 24.8857 146.37 24.9569 146.144 25.0836C145.918 25.2103 145.791 25.3821 145.791 25.5613V38.439C145.791 38.6181 145.918 38.79 146.144 38.9167C146.37 39.0434 146.676 39.1145 146.995 39.1145C147.315 39.1145 147.622 39.0434 147.849 38.9168C148.075 38.7902 148.203 38.6184 148.205 38.439V32.0555Z" fill="#E63036"/>
<path d="M154.619 32.0555V29.8494C154.617 29.67 154.489 29.4981 154.263 29.3715C154.036 29.2449 153.729 29.1738 153.41 29.1738V29.1738C153.09 29.1738 152.784 29.245 152.558 29.3717C152.332 29.4984 152.205 29.6702 152.205 29.8494V34.1507C152.205 34.3299 152.332 34.5017 152.558 34.6284C152.784 34.7551 153.09 34.8263 153.41 34.8263V34.8263C153.729 34.8263 154.036 34.7552 154.263 34.6286C154.489 34.502 154.617 34.3301 154.619 34.1507V32.0555Z" fill="#E63036"/>
<path d="M158.618 32.0555V29.8494C158.619 29.67 158.747 29.4981 158.974 29.3715C159.201 29.2449 159.507 29.1738 159.827 29.1738V29.1738C160.147 29.1738 160.453 29.245 160.679 29.3717C160.905 29.4984 161.032 29.6702 161.032 29.8494V34.1507C161.032 34.3299 160.905 34.5017 160.679 34.6284C160.453 34.7551 160.147 34.8263 159.827 34.8263V34.8263C159.507 34.8263 159.201 34.7552 158.974 34.6286C158.747 34.502 158.619 34.3301 158.618 34.1507V32.0555Z" fill="black"/>
<path d="M165.032 32.0555V25.5613C165.033 25.3819 165.161 25.2101 165.388 25.0834C165.615 24.9568 165.922 24.8857 166.241 24.8857V24.8857C166.561 24.8857 166.867 24.9569 167.093 25.0836C167.319 25.2103 167.446 25.3821 167.446 25.5613V38.439C167.446 38.6181 167.319 38.79 167.093 38.9167C166.867 39.0434 166.561 39.1145 166.241 39.1145C165.922 39.1145 165.615 39.0434 165.388 38.9168C165.161 38.7902 165.033 38.6184 165.032 38.439V32.0555Z" fill="black"/>
<path d="M171.445 32.0551V18.5652C171.445 18.386 171.572 18.2142 171.798 18.0875C172.024 17.9608 172.33 17.8897 172.65 17.8897V17.8897C172.808 17.8893 172.965 17.9065 173.112 17.9403C173.259 17.9741 173.392 18.0238 173.504 18.0866C173.617 18.1494 173.706 18.2239 173.767 18.3061C173.828 18.3882 173.859 18.4763 173.859 18.5652V45.4342C173.859 45.5231 173.828 45.6112 173.767 45.6933C173.706 45.7755 173.617 45.85 173.504 45.9128C173.392 45.9756 173.259 46.0253 173.112 46.0591C172.965 46.0929 172.808 46.1101 172.65 46.1097C172.33 46.1097 172.024 46.0386 171.798 45.9119C171.572 45.7852 171.445 45.6133 171.445 45.4342V32.0551Z" fill="black"/>
<path d="M177.859 32.0551V23.492C177.861 23.3125 177.989 23.1407 178.215 23.0141C178.442 22.8875 178.749 22.8164 179.069 22.8164C179.388 22.8164 179.694 22.8876 179.92 23.0143C180.146 23.141 180.273 23.3128 180.273 23.492V40.5074C180.273 40.6866 180.146 40.8584 179.92 40.9851C179.694 41.1118 179.388 41.1829 179.069 41.1829C178.749 41.1829 178.442 41.1119 178.215 40.9852C177.989 40.8586 177.861 40.6868 177.859 40.5074V32.0551Z" fill="black"/>
<path d="M184.272 32.0448V26.7671C184.272 26.5876 184.399 26.4155 184.625 26.2884C184.851 26.1613 185.157 26.0896 185.477 26.0889V26.0889C185.798 26.0889 186.105 26.1603 186.332 26.2875C186.559 26.4147 186.686 26.5872 186.686 26.7671V37.2328C186.686 37.4127 186.559 37.5852 186.332 37.7124C186.105 37.8395 185.798 37.911 185.477 37.911V37.911C185.157 37.9103 184.851 37.8385 184.625 37.7114C184.399 37.5843 184.272 37.4122 184.272 37.2328V32.0448Z" fill="black"/>
<path d="M190.687 32.0554V17.8504C190.688 17.6709 190.816 17.4991 191.042 17.3725C191.269 17.2459 191.576 17.1748 191.896 17.1748C192.216 17.1748 192.522 17.2459 192.749 17.3725C192.976 17.4991 193.104 17.6709 193.105 17.8504V46.1496C193.104 46.329 192.976 46.5008 192.749 46.6274C192.522 46.7541 192.216 46.8251 191.896 46.8251V46.8251C191.576 46.8251 191.269 46.7541 191.042 46.6274C190.816 46.5008 190.688 46.329 190.687 46.1496V32.0554Z" fill="black"/>
<path d="M197.104 32.0551V23.492C197.106 23.3125 197.234 23.1407 197.46 23.0141C197.687 22.8875 197.994 22.8164 198.314 22.8164C198.633 22.8164 198.939 22.8876 199.165 23.0143C199.391 23.141 199.518 23.3128 199.518 23.492V40.5074C199.518 40.6866 199.391 40.8584 199.165 40.9851C198.939 41.1118 198.633 41.1829 198.314 41.1829C197.994 41.1829 197.687 41.1119 197.46 40.9852C197.234 40.8586 197.106 40.6868 197.104 40.5074V32.0551Z" fill="black"/>
<path d="M205.932 32.0551V23.492C205.931 23.3125 205.803 23.1407 205.576 23.0141C205.35 22.8875 205.043 22.8164 204.723 22.8164C204.404 22.8164 204.097 22.8876 203.871 23.0143C203.645 23.141 203.519 23.3128 203.519 23.492V40.5074C203.519 40.6866 203.645 40.8584 203.871 40.9851C204.097 41.1118 204.404 41.1829 204.723 41.1829C205.043 41.1829 205.35 41.1119 205.576 40.9852C205.803 40.8586 205.931 40.6868 205.932 40.5074V32.0551Z" fill="black"/>
<path d="M212.345 32.0554V17.8504C212.344 17.6709 212.216 17.4991 211.989 17.3725C211.763 17.2459 211.456 17.1748 211.136 17.1748C210.817 17.1748 210.51 17.246 210.284 17.3727C210.059 17.4994 209.932 17.6712 209.932 17.8504V46.1496C209.932 46.3288 210.059 46.5006 210.284 46.6273C210.51 46.754 210.817 46.8251 211.136 46.8251C211.456 46.8251 211.763 46.7541 211.989 46.6274C212.216 46.5008 212.344 46.329 212.345 46.1496V32.0554Z" fill="black"/>
<path d="M218.75 32.0553V26.7776C218.753 26.6882 218.724 26.5994 218.666 26.5163C218.607 26.4331 218.52 26.3573 218.409 26.2932C218.298 26.2292 218.165 26.1781 218.018 26.143C217.872 26.108 217.714 26.0895 217.555 26.0889V26.0889C217.234 26.0889 216.927 26.1603 216.7 26.2875C216.473 26.4147 216.346 26.5872 216.346 26.7671V37.2328C216.346 37.4127 216.473 37.5852 216.7 37.7124C216.927 37.8396 217.234 37.911 217.555 37.911V37.911C217.713 37.911 217.87 37.8934 218.017 37.8593C218.163 37.8252 218.296 37.7752 218.408 37.7122C218.52 37.6492 218.609 37.5744 218.669 37.4921C218.729 37.4099 218.76 37.3217 218.759 37.2328L218.75 32.0553Z" fill="black"/>
<path d="M225.172 32.0551V23.492C225.172 23.3128 225.045 23.141 224.82 23.0143C224.594 22.8876 224.287 22.8164 223.968 22.8164C223.648 22.8164 223.341 22.8875 223.115 23.0141C222.888 23.1407 222.76 23.3125 222.759 23.492V40.5074C222.76 40.6868 222.888 40.8586 223.115 40.9852C223.341 41.1119 223.648 41.1829 223.968 41.1829V41.1829C224.287 41.1829 224.594 41.1118 224.82 40.9851C225.045 40.8584 225.172 40.6866 225.172 40.5074V32.0551Z" fill="black"/>
<path d="M231.591 32.0551V18.5652C231.591 18.4763 231.56 18.3882 231.499 18.3061C231.438 18.2239 231.349 18.1494 231.237 18.0866C231.124 18.0238 230.991 17.9741 230.844 17.9403C230.698 17.9065 230.541 17.8893 230.382 17.8897C230.223 17.8893 230.066 17.9065 229.92 17.9403C229.773 17.9741 229.64 18.0238 229.527 18.0866C229.415 18.1494 229.326 18.2239 229.265 18.3061C229.204 18.3882 229.173 18.4763 229.173 18.5652V45.4342C229.173 45.5231 229.204 45.6112 229.265 45.6933C229.326 45.7755 229.415 45.85 229.527 45.9128C229.64 45.9756 229.773 46.0253 229.92 46.0591C230.066 46.0929 230.223 46.1101 230.382 46.1097C230.541 46.1101 230.698 46.0929 230.844 46.0591C230.991 46.0253 231.124 45.9756 231.237 45.9128C231.349 45.85 231.438 45.7755 231.499 45.6933C231.56 45.6112 231.591 45.5231 231.591 45.4342V32.0551Z" fill="black"/>
<path d="M238.004 32.0555V25.5613C238.004 25.3821 237.878 25.2103 237.652 25.0836C237.426 24.9569 237.119 24.8857 236.8 24.8857C236.48 24.8857 236.173 24.9568 235.947 25.0834C235.72 25.2101 235.592 25.3819 235.591 25.5613V38.439C235.592 38.6184 235.72 38.7902 235.947 38.9168C236.173 39.0434 236.48 39.1145 236.8 39.1145V39.1145C237.119 39.1145 237.426 39.0434 237.652 38.9167C237.878 38.79 238.004 38.6181 238.004 38.439V32.0555Z" fill="black"/>
<path d="M244.418 32.0555V29.8494C244.417 29.67 244.289 29.4981 244.063 29.3715C243.836 29.2449 243.529 29.1738 243.209 29.1738V29.1738C242.89 29.1738 242.584 29.245 242.358 29.3717C242.132 29.4984 242.005 29.6702 242.005 29.8494V34.1507C242.005 34.3299 242.132 34.5017 242.358 34.6284C242.584 34.7551 242.89 34.8263 243.209 34.8263V34.8263C243.529 34.8263 243.836 34.7552 244.063 34.6286C244.289 34.502 244.417 34.3301 244.418 34.1507V32.0555Z" fill="black"/>
<path d="M248.418 32.0555V29.8494C248.418 29.6702 248.545 29.4984 248.771 29.3717C248.997 29.245 249.303 29.1738 249.622 29.1738V29.1738C249.942 29.1738 250.249 29.2449 250.476 29.3715C250.702 29.4981 250.83 29.67 250.832 29.8494V34.1507C250.83 34.3301 250.702 34.502 250.476 34.6286C250.249 34.7552 249.942 34.8263 249.622 34.8263V34.8263C249.303 34.8263 248.997 34.7551 248.771 34.6284C248.545 34.5017 248.418 34.3299 248.418 34.1507V32.0555Z" fill="black"/>
<path d="M254.832 32.0554V25.5611C254.83 25.4714 254.86 25.3823 254.92 25.2991C254.98 25.2159 255.069 25.1402 255.181 25.0764C255.294 25.0126 255.428 24.9619 255.575 24.9274C255.723 24.8928 255.881 24.875 256.041 24.875V24.875C256.361 24.875 256.668 24.9461 256.895 25.0727C257.121 25.1993 257.249 25.3711 257.25 25.5506V38.4282C257.255 38.5188 257.227 38.609 257.168 38.6935C257.109 38.7779 257.021 38.8548 256.908 38.9198C256.795 38.9847 256.661 39.0363 256.512 39.0716C256.363 39.1068 256.203 39.1249 256.041 39.1249V39.1249C255.721 39.1249 255.415 39.0538 255.188 38.9272C254.961 38.8006 254.833 38.6288 254.832 38.4494V32.0554Z" fill="black"/>
<path d="M261.251 32.0551V18.5652C261.251 18.4763 261.282 18.3882 261.343 18.3061C261.404 18.2239 261.493 18.1494 261.605 18.0866C261.718 18.0238 261.851 17.9741 261.998 17.9403C262.144 17.9065 262.302 17.8893 262.46 17.8897C262.78 17.8897 263.086 17.9608 263.312 18.0875C263.538 18.2142 263.665 18.386 263.665 18.5652V45.4342C263.665 45.6133 263.538 45.7852 263.312 45.9119C263.086 46.0386 262.78 46.1097 262.46 46.1097C262.302 46.1101 262.144 46.0929 261.998 46.0591C261.851 46.0253 261.718 45.9756 261.605 45.9128C261.493 45.85 261.404 45.7755 261.343 45.6933C261.282 45.6112 261.251 45.5231 261.251 45.4342V32.0551Z" fill="black"/>
<path d="M267.664 32.0551V23.492C267.664 23.3128 267.791 23.141 268.017 23.0143C268.243 22.8876 268.549 22.8164 268.869 22.8164C269.188 22.8164 269.495 22.8875 269.722 23.0141C269.948 23.1407 270.076 23.3125 270.078 23.492V40.5074C270.076 40.6868 269.948 40.8586 269.722 40.9852C269.495 41.1119 269.188 41.1829 268.869 41.1829V41.1829C268.549 41.1829 268.243 41.1118 268.017 40.9851C267.791 40.8584 267.664 40.6866 267.664 40.5074V32.0551Z" fill="black"/>
<path d="M274.078 32.0448V26.7671C274.078 26.5872 274.206 26.4147 274.432 26.2875C274.659 26.1603 274.967 26.0889 275.287 26.0889C275.446 26.0889 275.603 26.1064 275.749 26.1405C275.896 26.1747 276.029 26.2246 276.141 26.2877C276.253 26.3507 276.341 26.4255 276.401 26.5077C276.462 26.59 276.492 26.6781 276.492 26.7671V37.2328C276.492 37.3217 276.462 37.4099 276.401 37.4921C276.341 37.5744 276.253 37.6492 276.141 37.7122C276.029 37.7752 275.896 37.8252 275.749 37.8593C275.603 37.8934 275.446 37.911 275.287 37.911C274.967 37.911 274.659 37.8395 274.432 37.7124C274.206 37.5852 274.078 37.4127 274.078 37.2328V32.0448Z" fill="black"/>
<path d="M280.491 32.0554V17.8504C280.492 17.6709 280.62 17.4991 280.847 17.3725C281.074 17.2459 281.38 17.1748 281.7 17.1748C282.02 17.1748 282.326 17.246 282.552 17.3727C282.778 17.4994 282.905 17.6712 282.905 17.8504V46.1496C282.905 46.3288 282.778 46.5006 282.552 46.6273C282.326 46.754 282.02 46.8251 281.7 46.8251C281.38 46.8251 281.074 46.7541 280.847 46.6274C280.62 46.5008 280.492 46.329 280.491 46.1496V32.0554Z" fill="black"/>
<path d="M286.905 32.0551V23.492C286.905 23.3128 287.032 23.141 287.258 23.0143C287.484 22.8876 287.79 22.8164 288.11 22.8164C288.43 22.8164 288.736 22.8875 288.963 23.0141C289.19 23.1407 289.318 23.3125 289.319 23.492V40.5074C289.318 40.6868 289.19 40.8586 288.963 40.9852C288.736 41.1119 288.43 41.1829 288.11 41.1829V41.1829C287.79 41.1829 287.484 41.1118 287.258 40.9851C287.032 40.8584 286.905 40.6866 286.905 40.5074V32.0551Z" fill="black"/>
<path d="M294.523 52C294.203 52 293.897 51.9288 293.671 51.8021C293.445 51.6754 293.318 51.5036 293.318 51.3244V12.6756C293.318 12.4964 293.445 12.3246 293.671 12.1979C293.897 12.0712 294.203 12 294.523 12V12C294.843 12 295.15 12.0711 295.376 12.1977C295.603 12.3243 295.731 12.4961 295.732 12.6756V51.3244C295.731 51.5039 295.603 51.6757 295.376 51.8023C295.15 51.9289 294.843 52 294.523 52V52Z" fill="black"/>
<path d="M300.942 35.577C301.261 35.577 301.567 35.5059 301.793 35.3792C302.019 35.2525 302.146 35.0807 302.146 34.9015V29.0984C302.146 28.9192 302.019 28.7474 301.793 28.6207C301.567 28.494 301.261 28.4229 300.942 28.4229C300.622 28.4229 300.315 28.4939 300.088 28.6206C299.862 28.7472 299.734 28.919 299.732 29.0984V34.9015C299.734 35.0809 299.862 35.2527 300.088 35.3793C300.315 35.506 300.622 35.577 300.942 35.577Z" fill="black"/>
<path d="M308.559 32.0551V23.492C308.559 23.3128 308.432 23.141 308.206 23.0143C307.98 22.8876 307.674 22.8164 307.355 22.8164V22.8164C307.035 22.8164 306.728 22.8875 306.501 23.0141C306.275 23.1407 306.147 23.3125 306.146 23.492V40.5074C306.147 40.6868 306.275 40.8586 306.501 40.9852C306.728 41.1119 307.035 41.1829 307.355 41.1829V41.1829C307.674 41.1829 307.98 41.1118 308.206 40.9851C308.432 40.8584 308.559 40.6866 308.559 40.5074V32.0551Z" fill="black"/>
<path d="M314.973 32.0554V17.8504C314.973 17.6712 314.846 17.4994 314.62 17.3727C314.395 17.246 314.088 17.1748 313.769 17.1748C313.449 17.1748 313.142 17.2459 312.915 17.3725C312.689 17.4991 312.561 17.6709 312.56 17.8504V46.1496C312.561 46.329 312.689 46.5008 312.915 46.6274C313.142 46.7541 313.449 46.8251 313.769 46.8251V46.8251C314.088 46.8251 314.395 46.754 314.62 46.6273C314.846 46.5006 314.973 46.3288 314.973 46.1496V32.0554Z" fill="black"/>
<path d="M321.386 32.0448V26.7671C321.386 26.5872 321.259 26.4147 321.032 26.2875C320.805 26.1603 320.498 26.0889 320.177 26.0889C319.857 26.0896 319.551 26.1613 319.325 26.2884C319.099 26.4155 318.973 26.5876 318.973 26.7671V37.2328C318.973 37.4122 319.099 37.5843 319.325 37.7114C319.551 37.8385 319.857 37.9103 320.177 37.911V37.911C320.498 37.911 320.805 37.8395 321.032 37.7124C321.259 37.5852 321.386 37.4127 321.386 37.2328V32.0448Z" fill="black"/>
<path d="M327.805 32.0551V23.492C327.804 23.3125 327.676 23.1407 327.449 23.0141C327.223 22.8875 326.916 22.8164 326.596 22.8164V22.8164C326.276 22.8164 325.969 22.8875 325.743 23.0141C325.516 23.1407 325.388 23.3125 325.387 23.492V40.5074C325.388 40.6868 325.516 40.8586 325.743 40.9852C325.969 41.1119 326.276 41.1829 326.596 41.1829V41.1829C326.916 41.1829 327.223 41.1119 327.449 40.9852C327.676 40.8586 327.804 40.6868 327.805 40.5074V32.0551Z" fill="black"/>
<path d="M334.218 32.0551V18.5652C334.218 18.4763 334.187 18.3882 334.126 18.3061C334.065 18.2239 333.976 18.1494 333.864 18.0866C333.752 18.0238 333.618 17.9741 333.471 17.9403C333.325 17.9065 333.168 17.8893 333.009 17.8897C332.69 17.8897 332.383 17.9608 332.157 18.0875C331.932 18.2142 331.805 18.386 331.805 18.5652V45.4342C331.805 45.6133 331.932 45.7852 332.157 45.9119C332.383 46.0386 332.69 46.1097 333.009 46.1097V46.1097C333.168 46.1101 333.325 46.0929 333.471 46.0591C333.618 46.0253 333.752 45.9756 333.864 45.9128C333.976 45.85 334.065 45.7755 334.126 45.6933C334.187 45.6112 334.218 45.5231 334.218 45.4342V32.0551Z" fill="black"/>
<path d="M340.633 32.0554V25.5611C340.635 25.4714 340.605 25.3823 340.545 25.2991C340.485 25.2159 340.396 25.1402 340.284 25.0764C340.171 25.0126 340.037 24.9619 339.89 24.9274C339.742 24.8928 339.584 24.875 339.424 24.875C339.104 24.875 338.798 24.9462 338.572 25.0729C338.346 25.1996 338.219 25.3714 338.219 25.5506V38.4282C338.214 38.5187 338.242 38.6088 338.3 38.6932C338.358 38.7777 338.446 38.8546 338.559 38.9196C338.671 38.9846 338.805 39.0363 338.954 39.0715C339.103 39.1068 339.262 39.1249 339.424 39.1249V39.1249C339.744 39.1249 340.05 39.0538 340.277 38.9272C340.504 38.8006 340.632 38.6288 340.633 38.4494V32.0554Z" fill="black"/>
<path d="M347.046 32.0555V29.8494C347.046 29.6702 346.92 29.4984 346.694 29.3717C346.468 29.245 346.161 29.1738 345.842 29.1738V29.1738C345.522 29.1738 345.215 29.2449 344.989 29.3715C344.762 29.4981 344.634 29.67 344.633 29.8494V34.1507C344.634 34.3301 344.762 34.502 344.989 34.6286C345.215 34.7552 345.522 34.8263 345.842 34.8263V34.8263C346.161 34.8263 346.468 34.7551 346.694 34.6284C346.92 34.5017 347.046 34.3299 347.046 34.1507V32.0555Z" fill="black"/>
<path d="M351.046 32.0555V29.8494C351.047 29.67 351.175 29.4981 351.402 29.3715C351.628 29.2449 351.935 29.1738 352.255 29.1738V29.1738C352.574 29.1738 352.881 29.245 353.107 29.3717C353.333 29.4984 353.46 29.6702 353.46 29.8494V34.1507C353.46 34.3299 353.333 34.5017 353.107 34.6284C352.881 34.7551 352.574 34.8263 352.255 34.8263V34.8263C351.935 34.8263 351.628 34.7552 351.402 34.6286C351.175 34.502 351.047 34.3301 351.046 34.1507V32.0555Z" fill="black"/>
<path d="M357.46 32.0555V29.8494C357.461 29.67 357.589 29.4981 357.816 29.3715C358.042 29.2449 358.349 29.1738 358.669 29.1738V29.1738C358.989 29.1738 359.295 29.245 359.521 29.3717C359.747 29.4984 359.874 29.6702 359.874 29.8494V34.1507C359.874 34.3299 359.747 34.5017 359.521 34.6284C359.295 34.7551 358.989 34.8263 358.669 34.8263V34.8263C358.349 34.8263 358.042 34.7552 357.816 34.6286C357.589 34.502 357.461 34.3301 357.46 34.1507V32.0555Z" fill="black"/>
<path d="M363.874 32.0554V25.5611C363.872 25.4715 363.901 25.3825 363.96 25.2993C364.02 25.2162 364.108 25.1404 364.22 25.0766C364.332 25.0127 364.466 24.962 364.613 24.9274C364.761 24.8928 364.919 24.875 365.079 24.875C365.398 24.875 365.705 24.9461 365.932 25.0727C366.159 25.1993 366.287 25.3711 366.288 25.5506V38.4282C366.292 38.5188 366.264 38.609 366.205 38.6935C366.147 38.7779 366.058 38.8548 365.945 38.9198C365.833 38.9847 365.698 39.0363 365.549 39.0716C365.4 39.1068 365.24 39.1249 365.079 39.1249V39.1249C364.759 39.1249 364.453 39.0537 364.227 38.927C364.001 38.8003 363.874 38.6285 363.874 38.4494V32.0554Z" fill="black"/>
<path d="M370.288 32.0551V18.5652C370.287 18.4764 370.318 18.3884 370.379 18.3063C370.439 18.2242 370.528 18.1495 370.639 18.0867C370.751 18.0239 370.884 17.9742 371.031 17.9404C371.177 17.9065 371.334 17.8893 371.493 17.8897V17.8897C371.651 17.8893 371.808 17.9065 371.955 17.9403C372.102 17.9741 372.235 18.0238 372.347 18.0866C372.46 18.1494 372.549 18.2239 372.61 18.3061C372.67 18.3882 372.702 18.4763 372.702 18.5652V45.4342C372.702 45.5231 372.67 45.6112 372.61 45.6933C372.549 45.7755 372.46 45.85 372.347 45.9128C372.235 45.9756 372.102 46.0253 371.955 46.0591C371.808 46.0929 371.651 46.1101 371.493 46.1097V46.1097C371.334 46.1101 371.177 46.0928 371.031 46.059C370.884 46.0252 370.751 45.9754 370.639 45.9126C370.528 45.8498 370.439 45.7752 370.379 45.6931C370.318 45.611 370.287 45.523 370.288 45.4342V32.0551Z" fill="black"/>
<path d="M376.701 32.0551V23.492C376.701 23.3128 376.828 23.141 377.054 23.0143C377.28 22.8876 377.586 22.8164 377.906 22.8164C378.225 22.8164 378.531 22.8876 378.757 23.0143C378.983 23.141 379.11 23.3128 379.11 23.492V40.5074C379.11 40.6866 378.983 40.8584 378.757 40.9851C378.531 41.1118 378.225 41.1829 377.906 41.1829C377.586 41.1829 377.28 41.1118 377.054 40.9851C376.828 40.8584 376.701 40.6866 376.701 40.5074V32.0551Z" fill="black"/>
<path d="M383.11 32.0448V26.7671C383.11 26.6781 383.14 26.59 383.201 26.5077C383.261 26.4255 383.35 26.3507 383.461 26.2877C383.573 26.2246 383.706 26.1747 383.853 26.1405C383.999 26.1064 384.156 26.0889 384.315 26.0889C384.635 26.0889 384.943 26.1603 385.17 26.2875C385.397 26.4147 385.524 26.5872 385.524 26.7671V37.2328C385.524 37.4127 385.397 37.5852 385.17 37.7124C384.943 37.8395 384.635 37.911 384.315 37.911V37.911C384.156 37.911 383.999 37.8934 383.853 37.8593C383.706 37.8252 383.573 37.7752 383.461 37.7122C383.35 37.6492 383.261 37.5744 383.201 37.4921C383.14 37.4099 383.11 37.3217 383.11 37.2328V32.0448Z" fill="black"/>
<path d="M389.523 32.0554V17.8504C389.525 17.6709 389.653 17.4991 389.879 17.3725C390.106 17.2459 390.413 17.1748 390.733 17.1748V17.1748C391.052 17.1748 391.358 17.246 391.584 17.3727C391.81 17.4994 391.937 17.6712 391.937 17.8504V46.1496C391.937 46.3288 391.81 46.5006 391.584 46.6273C391.358 46.754 391.052 46.8251 390.733 46.8251C390.413 46.8251 390.106 46.7541 389.879 46.6274C389.653 46.5008 389.525 46.329 389.523 46.1496V32.0554Z" fill="black"/>
<path d="M395.938 32.0551V23.492C395.939 23.3125 396.067 23.1407 396.293 23.0141C396.52 22.8875 396.827 22.8164 397.147 22.8164V22.8164C397.466 22.8164 397.772 22.8876 397.998 23.0143C398.224 23.141 398.351 23.3128 398.351 23.492V40.5074C398.351 40.6866 398.224 40.8584 397.998 40.9851C397.772 41.1118 397.466 41.1829 397.147 41.1829C396.827 41.1829 396.52 41.1119 396.293 40.9852C396.067 40.8586 395.939 40.6868 395.938 40.5074V32.0551Z" fill="black"/>
<path d="M403.561 52C403.241 52 402.934 51.9289 402.707 51.8023C402.481 51.6757 402.353 51.5039 402.352 51.3244V12.6756C402.353 12.4961 402.481 12.3243 402.707 12.1977C402.934 12.0711 403.241 12 403.561 12V12C403.88 12 404.187 12.0712 404.412 12.1979C404.638 12.3246 404.765 12.4964 404.765 12.6756V51.3244C404.765 51.5036 404.638 51.6754 404.412 51.8021C404.187 51.9288 403.88 52 403.561 52Z" fill="black"/>
<path d="M409.969 49.9622C410.289 49.9622 410.596 49.8984 410.822 49.7846C411.049 49.6709 411.177 49.5166 411.178 49.3555V14.6438C411.177 14.4827 411.049 14.3284 410.822 14.2147C410.596 14.101 410.289 14.0371 409.969 14.0371C409.65 14.0371 409.343 14.101 409.117 14.2148C408.892 14.3286 408.765 14.4829 408.765 14.6438V49.3555C408.765 49.5164 408.892 49.6707 409.117 49.7845C409.343 49.8983 409.65 49.9622 409.969 49.9622Z" fill="black"/>
<path d="M417.592 32.0551V23.492C417.591 23.3125 417.463 23.1407 417.237 23.0141C417.01 22.8875 416.703 22.8164 416.383 22.8164V22.8164C416.064 22.8164 415.757 22.8876 415.531 23.0143C415.306 23.141 415.179 23.3128 415.179 23.492V40.5074C415.179 40.6866 415.306 40.8584 415.531 40.9851C415.757 41.1118 416.064 41.1829 416.383 41.1829C416.703 41.1829 417.01 41.1119 417.237 40.9852C417.463 40.8586 417.591 40.6868 417.592 40.5074V32.0551Z" fill="black"/>
<path d="M424.01 32.0554V17.8504C424.009 17.6709 423.881 17.4991 423.654 17.3725C423.428 17.2459 423.121 17.1748 422.801 17.1748C422.481 17.1748 422.174 17.2459 421.948 17.3725C421.721 17.4991 421.593 17.6709 421.592 17.8504V46.1496C421.593 46.329 421.721 46.5008 421.948 46.6274C422.174 46.7541 422.481 46.8251 422.801 46.8251V46.8251C423.121 46.8251 423.428 46.7541 423.654 46.6274C423.881 46.5008 424.009 46.329 424.01 46.1496V32.0554Z" fill="black"/>
<path d="M430.423 32.0448V26.7671C430.423 26.5876 430.297 26.4155 430.071 26.2884C429.845 26.1613 429.539 26.0896 429.219 26.0889V26.0889C428.898 26.0889 428.591 26.1603 428.364 26.2875C428.137 26.4147 428.01 26.5872 428.01 26.7671V37.2328C428.01 37.4127 428.137 37.5852 428.364 37.7124C428.591 37.8395 428.898 37.911 429.219 37.911V37.911C429.539 37.9103 429.845 37.8385 430.071 37.7114C430.297 37.5843 430.423 37.4122 430.423 37.2328V32.0448Z" fill="black"/>
<path d="M436.837 32.0551V23.492C436.836 23.3125 436.708 23.1407 436.482 23.0141C436.255 22.8875 435.948 22.8164 435.628 22.8164C435.309 22.8164 435.002 22.8876 434.777 23.0143C434.551 23.141 434.424 23.3128 434.424 23.492V40.5074C434.424 40.6866 434.551 40.8584 434.777 40.9851C435.002 41.1118 435.309 41.1829 435.628 41.1829C435.948 41.1829 436.255 41.1119 436.482 40.9852C436.708 40.8586 436.836 40.6868 436.837 40.5074V32.0551Z" fill="black"/>
<path d="M443.251 32.0551V18.5652C443.251 18.386 443.125 18.2142 442.899 18.0875C442.673 17.9608 442.366 17.8897 442.047 17.8897V17.8897C441.888 17.8893 441.731 17.9065 441.585 17.9403C441.438 17.9741 441.305 18.0238 441.192 18.0866C441.08 18.1494 440.991 18.2239 440.93 18.3061C440.869 18.3882 440.838 18.4763 440.838 18.5652V45.4342C440.838 45.5231 440.869 45.6112 440.93 45.6933C440.991 45.7755 441.08 45.85 441.192 45.9128C441.305 45.9756 441.438 46.0253 441.585 46.0591C441.731 46.0929 441.888 46.1101 442.047 46.1097C442.366 46.1097 442.673 46.0386 442.899 45.9119C443.125 45.7852 443.251 45.6133 443.251 45.4342V32.0551Z" fill="black"/>
<path d="M449.665 32.0555V25.5613C449.663 25.3819 449.535 25.2101 449.309 25.0834C449.082 24.9568 448.775 24.8857 448.455 24.8857C448.136 24.8857 447.83 24.9569 447.604 25.0836C447.378 25.2103 447.251 25.3821 447.251 25.5613V38.439C447.251 38.6181 447.378 38.79 447.604 38.9167C447.83 39.0434 448.136 39.1145 448.455 39.1145C448.775 39.1145 449.082 39.0434 449.309 38.9168C449.535 38.7902 449.663 38.6184 449.665 38.439V32.0555Z" fill="black"/>
<path d="M456.079 32.0555V29.8494C456.077 29.67 455.949 29.4981 455.723 29.3715C455.496 29.2449 455.189 29.1738 454.869 29.1738V29.1738C454.55 29.1738 454.244 29.245 454.018 29.3717C453.792 29.4984 453.665 29.6702 453.665 29.8494V34.1507C453.665 34.3299 453.792 34.5017 454.018 34.6284C454.244 34.7551 454.55 34.8263 454.869 34.8263V34.8263C455.189 34.8263 455.496 34.7552 455.723 34.6286C455.949 34.502 456.077 34.3301 456.079 34.1507V32.0555Z" fill="black"/>
<path d="M460.078 32.0555V29.8494C460.079 29.67 460.207 29.4981 460.434 29.3715C460.661 29.2449 460.967 29.1738 461.287 29.1738V29.1738C461.607 29.1738 461.913 29.245 462.139 29.3717C462.365 29.4984 462.492 29.6702 462.492 29.8494V34.1507C462.492 34.3299 462.365 34.5017 462.139 34.6284C461.913 34.7551 461.607 34.8263 461.287 34.8263V34.8263C460.967 34.8263 460.661 34.7552 460.434 34.6286C460.207 34.502 460.079 34.3301 460.078 34.1507V32.0555Z" fill="black"/>
</g>
<path d="M479.476 33.123H484.173V32.171H479.476V33.123ZM488.449 36.098C489.504 36.098 490.283 35.8973 490.787 35.496C491.291 35.09 491.543 34.4647 491.543 33.62V28.951C491.543 28.111 491.289 27.4903 490.78 27.089C490.276 26.683 489.499 26.48 488.449 26.48C487.395 26.48 486.613 26.6807 486.104 27.082C485.6 27.4833 485.348 28.1063 485.348 28.951V33.62C485.348 34.4647 485.603 35.09 486.111 35.496C486.62 35.8973 487.399 36.098 488.449 36.098ZM488.449 35.104C487.857 35.104 487.427 34.978 487.161 34.726C486.9 34.4693 486.769 34.0773 486.769 33.55V29.021C486.769 28.4937 486.898 28.104 487.154 27.852C487.416 27.6 487.847 27.474 488.449 27.474C489.037 27.474 489.462 27.6023 489.723 27.859C489.989 28.111 490.122 28.4983 490.122 29.021V33.55C490.122 34.0727 489.989 34.4623 489.723 34.719C489.462 34.9757 489.037 35.104 488.449 35.104ZM495.925 36.098C497.218 36.098 498.074 35.8553 498.494 35.37C498.919 34.88 499.131 34.194 499.131 33.312C499.131 32.6633 498.959 32.1663 498.613 31.821C498.268 31.471 497.738 31.2867 497.024 31.268C497.734 31.24 498.261 31.044 498.606 30.68C498.956 30.316 499.131 29.8073 499.131 29.154C499.131 28.3327 498.917 27.6817 498.487 27.201C498.063 26.7203 497.209 26.48 495.925 26.48C494.689 26.48 493.842 26.7577 493.384 27.313C492.932 27.8637 492.705 28.7247 492.705 29.896H494.119C494.119 28.8553 494.271 28.188 494.574 27.894C494.882 27.6 495.335 27.453 495.932 27.453C496.539 27.453 496.987 27.5907 497.276 27.866C497.57 28.1367 497.717 28.6383 497.717 29.371C497.717 29.8843 497.563 30.253 497.255 30.477C496.952 30.6963 496.397 30.8153 495.589 30.834V31.744C496.397 31.758 496.952 31.8677 497.255 32.073C497.563 32.2737 497.717 32.6377 497.717 33.165C497.717 33.9257 497.575 34.4413 497.29 34.712C497.006 34.9827 496.553 35.118 495.932 35.118C495.312 35.118 494.854 34.978 494.56 34.698C494.266 34.418 494.119 33.8043 494.119 32.857H492.705C492.705 33.9583 492.925 34.775 493.363 35.307C493.807 35.8343 494.661 36.098 495.925 36.098ZM500.342 34.705V36H501.679V34.705H500.342ZM500.342 27.922V29.217H501.679V27.922H500.342ZM506.261 36.098C507.554 36.098 508.41 35.8553 508.83 35.37C509.255 34.88 509.467 34.194 509.467 33.312C509.467 32.6633 509.295 32.1663 508.949 31.821C508.604 31.471 508.074 31.2867 507.36 31.268C508.07 31.24 508.597 31.044 508.942 30.68C509.292 30.316 509.467 29.8073 509.467 29.154C509.467 28.3327 509.253 27.6817 508.823 27.201C508.399 26.7203 507.545 26.48 506.261 26.48C505.025 26.48 504.178 26.7577 503.72 27.313C503.268 27.8637 503.041 28.7247 503.041 29.896H504.455C504.455 28.8553 504.607 28.188 504.91 27.894C505.218 27.6 505.671 27.453 506.268 27.453C506.875 27.453 507.323 27.5907 507.612 27.866C507.906 28.1367 508.053 28.6383 508.053 29.371C508.053 29.8843 507.899 30.253 507.591 30.477C507.288 30.6963 506.733 30.8153 505.925 30.834V31.744C506.733 31.758 507.288 31.8677 507.591 32.073C507.899 32.2737 508.053 32.6377 508.053 33.165C508.053 33.9257 507.911 34.4413 507.626 34.712C507.342 34.9827 506.889 35.118 506.268 35.118C505.648 35.118 505.19 34.978 504.896 34.698C504.602 34.418 504.455 33.8043 504.455 32.857H503.041C503.041 33.9583 503.261 34.775 503.699 35.307C504.143 35.8343 504.997 36.098 506.261 36.098ZM514.395 36H515.802V33.655H517.027V32.717H515.802V26.55H513.702L510.433 32.71V33.655H514.395V36ZM511.861 32.717L514.479 27.474H514.395V32.717H511.861Z" fill="black"/>
<defs>
<clipPath id="clip0_124_3562">
<rect width="407" height="40" fill="white" transform="translate(56 12)"/>
</clipPath>
</defs>
</svg>
